HIERARCHY
ROOT Hips
{
  OFFSET 54.5865 94.0786 23.5498
  CHANNELS 6 Xposition Yposition Zposition Zrotation Xrotation Yrotation
  JOINT spine
  {
    OFFSET 0 7.4756 0.429885
    CHANNELS 3 Zrotation Xrotation Yrotation
    JOINT spine1
    {
      OFFSET 0 9.92301 0
      CHANNELS 3 Zrotation Xrotation Yrotation
      JOINT spine2
      {
        OFFSET 0 9.50804 0
        CHANNELS 3 Zrotation Xrotation Yrotation
        JOINT Neck
        {
          OFFSET 0 24.4111 1.16384
          CHANNELS 3 Zrotation Xrotation Yrotation
          JOINT Head
          {
            OFFSET 0 7.37523 0
            CHANNELS 3 Zrotation Xrotation Yrotation
            End Site
            {
              OFFSET 0 17.8522 -5.88741
            }
          }
        }
        JOINT RightShoulder
        {
          OFFSET -4.00356 10.2679 -0.557468
          CHANNELS 3 Zrotation Xrotation Yrotation
          JOINT RightArm
          {
            OFFSET 0 13.4673 0
            CHANNELS 3 Zrotation Xrotation Yrotation
            JOINT RightArmRoll
            {
              OFFSET 0 6.79858 0
              CHANNELS 3 Zrotation Xrotation Yrotation
              JOINT RightForeArm
              {
                OFFSET 0 19.8018 0
                CHANNELS 3 Zrotation Xrotation Yrotation
                JOINT RightForeArmRoll
                {
                  OFFSET 0 7.62905 0
                  CHANNELS 3 Zrotation Xrotation Yrotation
                  JOINT RightHand
                  {
                    OFFSET 0 15.3098 0
                    CHANNELS 3 Zrotation Xrotation Yrotation
                    End Site
                    {
                      OFFSET 0 0 0
                    }
                  }
                }
              }
            }
          }
        }
        JOINT LeftShoulder
        {
          OFFSET 4.00356 10.2679 -0.557468
          CHANNELS 3 Zrotation Xrotation Yrotation
          JOINT LeftArm
          {
            OFFSET 0 13.4673 0
            CHANNELS 3 Zrotation Xrotation Yrotation
            JOINT LeftArmRoll
            {
              OFFSET 0 6.79857 0
              CHANNELS 3 Zrotation Xrotation Yrotation
              JOINT LeftForeArm
              {
                OFFSET 0 19.8018 0
                CHANNELS 3 Zrotation Xrotation Yrotation
                JOINT LeftForeArmRoll
                {
                  OFFSET 0 7.62905 0
                  CHANNELS 3 Zrotation Xrotation Yrotation
                  JOINT LeftHand
                  {
                    OFFSET 0 15.3098 0
                    CHANNELS 3 Zrotation Xrotation Yrotation
                    End Site
                    {
                      OFFSET 0 0 0
                    }
                  }
                }
              }
            }
          }
        }
      }
    }
  }
  JOINT RightUpLeg
  {
    OFFSET -6.62609 -1.21505 -1.01927
    CHANNELS 3 Zrotation Xrotation Yrotation
    JOINT RightUpLegRoll
    {
      OFFSET 0 17.9517 0
      CHANNELS 3 Zrotation Xrotation Yrotation
      JOINT RightLeg
      {
        OFFSET 0 -22.2304 0
        CHANNELS 3 Zrotation Xrotation Yrotation
        JOINT RightLegRoll
        {
          OFFSET 0 22.3032 0
          CHANNELS 3 Zrotation Xrotation Yrotation
          JOINT RightFoot
          {
            OFFSET 0 18.5636 0
            CHANNELS 3 Zrotation Xrotation Yrotation
            JOINT RightToeBase
            {
              OFFSET 0 15.5183 0
              CHANNELS 3 Zrotation Xrotation Yrotation
              End Site
              {
                OFFSET 0.00657761 7.51538 -0.866263
              }
            }
          }
        }
      }
    }
  }
  JOINT LeftUpLeg
  {
    OFFSET 6.62609 -1.21505 -1.01927
    CHANNELS 3 Zrotation Xrotation Yrotation
    JOINT LeftUpLegRoll
    {
      OFFSET 0 17.9518 0
      CHANNELS 3 Zrotation Xrotation Yrotation
      JOINT LeftLeg
      {
        OFFSET 0 22.2303 0
        CHANNELS 3 Zrotation Xrotation Yrotation
        JOINT LeftLegRoll
        {
          OFFSET 0 22.5093 0
          CHANNELS 3 Zrotation Xrotation Yrotation
          JOINT LeftFoot
          {
            OFFSET 0 18.3575 0
            CHANNELS 3 Zrotation Xrotation Yrotation
            JOINT LeftToeBase
            {
              OFFSET 0 15.5183 0
              CHANNELS 3 Zrotation Xrotation Yrotation
              End Site
              {
                OFFSET -0.029478 7.51538 -0.866263
              }
            }
          }
        }
      }
    }
  }
}
MOTION
Frames: 13
Frame Time: 0.00208333
54.2688 87.4658 7.04627 -2.18838 8.94314 3.31966 -0.660459 0.193588 -0.150912 -1.31319 4.39091 -0.215979 -1.31268 6.03573 -0.194147 1.01599 -24.2125 -1.13888 5.35502 17.7168 -1.4922 73.6089 -2.88126 -3.02936 102.439 32.309 11.3796 4.1656e-007 1.84121e-007 -3.61842e-006 7.75862 0.0577274 -1.52072 8.83646e-006 5.78448e-006 -3.11239 8.02904 -4.95147 0.697676 -67.0754 -8.38436 5.39434 -103.074 26.4344 -13.5706 1.58008e-005 -2.93677e-006 2.64796e-005 -3.80294 3.71362 0.968294 4.50182e-006 -1.14581e-007 3.00739 -8.03017 -4.95137 -0.697637 -173.76 37.9893 -6.13949 180 3.05116e-005 178.864 178.695 41.8378 178.813 1.89536e-007 -7.33856e-006 0.824331 -21.3922 69.618 21.0584 8.6792 31.1324 -4.76763 -179.58 38.6649 1.2381 4.57705e-006 1.05463e-005 -1.01692 -2.71392 -38.7765 0.465926 -5.18169e-006 -2.08293e-006 -0.75466 22.0268 68.9064 -20.3887 -8.38508 28.9145 3.50424 
54.2881 87.5988 7.17738 -2.16834 8.83914 3.3139 -0.662008 0.171487 -0.153818 -1.31491 4.34675 -0.223176 -1.31431 5.99157 -0.201323 0.934227 -23.9853 -1.14067 5.41194 17.7292 -1.48998 73.5841 -2.88837 -3.03069 102.472 32.1809 11.3144 4.1656e-007 1.84121e-007 -3.61842e-006 7.81646 0.0582292 -1.51675 8.83646e-006 5.78448e-006 -3.11231 8.02904 -4.95147 0.697676 -67.1137 -8.37835 5.39198 -103.025 26.2654 -13.6162 1.58008e-005 -2.93677e-006 2.64796e-005 -3.83305 3.7633 0.971382 4.50182e-006 -1.14581e-007 3.00739 -8.03017 -4.95137 -0.697637 -173.847 37.598 -6.08716 180 3.05116e-005 178.871 178.692 41.4831 178.825 1.89536e-007 -7.33856e-006 0.808466 -21.1844 69.5357 20.9681 8.68557 31.0749 -4.86993 -179.579 38.2028 1.26151 4.57705e-006 1.05463e-005 -1.01542 -2.75418 -38.2726 0.444141 -5.18169e-006 -2.08293e-006 -0.742194 21.9468 68.8046 -20.291 -8.38237 28.8712 3.5076 
54.2969 87.7288 7.3072 -2.14815 8.73509 3.30822 -0.663523 0.149421 -0.156408 -1.31675 4.30266 -0.229651 -1.31607 5.94748 -0.207773 0.853835 -23.7567 -1.143 5.46801 17.7378 -1.48854 73.5605 -2.89597 -3.03232 102.501 32.0504 11.252 4.1656e-007 1.84121e-007 -3.61842e-006 7.8737 0.0587286 -1.51231 8.83646e-006 5.78448e-006 -3.11213 8.02904 -4.95147 0.697676 -67.1485 -8.37272 5.38975 -102.981 26.097 -13.6608 1.58008e-005 -2.93677e-006 2.64796e-005 -3.8618 3.8116 0.974347 4.50182e-006 -1.14581e-007 3.00739 -8.03017 -4.95137 -0.697637 -173.932 37.2087 -6.03474 180 3.05117e-005 178.877 178.689 41.133 178.836 1.89536e-007 -7.33856e-006 0.793229 -20.9906 69.4594 20.8851 8.68966 31.0056 -4.96385 -179.578 37.7455 1.28543 4.57705e-006 1.05463e-005 -1.01376 -2.79165 -37.7781 0.423752 -5.18169e-006 -2.08293e-006 -0.729752 21.861 68.7045 -20.1959 -8.37996 28.8258 3.51751 
54.3087 87.8607 7.43642 -2.12781 8.63088 3.30272 -0.664984 0.127467 -0.158586 -1.31873 4.25879 -0.235185 -1.31798 5.9036 -0.21328 0.775419 -23.5268 -1.14612 5.52259 17.742 -1.48816 73.538 -2.90437 -3.03439 102.527 31.9177 11.1924 4.1656e-007 1.84121e-007 -3.61842e-006 7.93026 0.059225 -1.50737 8.83646e-006 5.78448e-006 -3.11184 8.02904 -4.95147 0.697676 -67.1788 -8.36751 5.38764 -102.944 25.9296 -13.7039 1.58008e-005 -2.93677e-006 2.64796e-005 -3.88886 3.85797 0.977148 4.50182e-006 -1.14581e-007 3.00739 -8.03017 -4.95137 -0.697637 -174.017 36.8214 -5.9824 180 3.05118e-005 178.883 178.685 40.788 178.848 1.89536e-007 -7.33855e-006 0.77875 -20.8135 69.3902 20.8104 8.69108 30.9234 -5.04729 -179.578 37.2938 1.31034 4.57705e-006 1.05463e-005 -1.01191 -2.82582 -37.295 0.404935 -5.18169e-006 -2.08293e-006 -0.717339 21.7683 68.607 -20.1042 -8.3779 28.778 3.53495 
54.3176 87.9865 7.56659 -2.10732 8.52639 3.29752 -0.66637 0.105704 -0.160257 -1.32083 4.21529 -0.239561 -1.32002 5.8601 -0.217625 0.699581 -23.2958 -1.15027 5.57504 17.7409 -1.4891 73.5165 -2.91388 -3.03703 102.55 31.7828 11.136 4.1656e-007 1.84121e-007 -3.61842e-006 7.98606 0.0597177 -1.50189 8.83646e-006 5.78448e-006 -3.11142 8.02904 -4.95147 0.697676 -67.2034 -8.36278 5.38566 -102.914 25.7637 -13.7449 1.58008e-005 -2.93677e-006 2.64796e-005 -3.9139 3.90185 0.979744 4.50182e-006 -1.14581e-007 3.00739 -8.03017 -4.95137 -0.697637 -174.101 36.436 -5.93031 180 3.05118e-005 178.888 178.681 40.4487 178.86 1.89536e-007 -7.33855e-006 0.765161 -20.6561 69.3292 20.745 8.68949 30.8272 -5.11815 -179.579 36.8485 1.33669 4.57705e-006 1.05463e-005 -1.00983 -2.85619 -36.8255 0.387861 -5.18169e-006 -2.08293e-006 -0.704956 21.668 68.5125 -20.0164 -8.37621 28.7277 3.56089 
54.3333 88.1078 7.68627 -2.08668 8.4215 3.29273 -0.667661 0.0842091 -0.161327 -1.32306 4.17231 -0.24256 -1.32221 5.81713 -0.220589 0.626931 -23.0637 -1.1557 5.62471 17.734 -1.49164 73.4961 -2.92483 -3.04038 102.57 31.6455 11.0827 4.1656e-007 1.84121e-007 -3.61842e-006 8.041 0.0602058 -1.49583 8.83646e-006 5.78448e-006 -3.11085 8.02904 -4.95147 0.697676 -67.2213 -8.35858 5.38382 -102.895 25.5998 -13.7832 1.58008e-005 -2.93677e-006 2.64796e-005 -3.9366 3.94268 0.982092 4.50182e-006 -1.14581e-007 3.00739 -8.03017 -4.95137 -0.697637 -174.183 36.0526 -5.87862 180 3.05119e-005 178.893 178.677 40.1157 178.872 1.89536e-007 -7.33855e-006 0.752591 -20.5212 69.2774 20.6898 8.68455 30.7158 -5.17436 -179.58 36.4103 1.36496 4.57705e-006 1.05463e-005 -1.00751 -2.88226 -36.3717 0.372699 -5.18169e-006 -2.08293e-006 -0.692608 21.5591 68.4219 -19.933 -8.37491 28.6745 3.59631 
54.3433 88.2322 7.81869 -2.06549 8.31695 3.28846 -0.668926 0.062653 -0.161823 -1.32557 4.12921 -0.244289 -1.32469 5.77402 -0.222277 0.554842 -22.8295 -1.16286 5.67518 17.7211 -1.49632 73.4758 -2.93738 -3.04447 102.588 31.5039 11.0328 4.1656e-007 1.84121e-007 -3.61842e-006 8.09507 0.060698 -1.48907 8.83646e-006 5.78448e-006 -3.11012 8.02904 -4.95147 0.697676 -67.2343 -8.35422 5.38179 -102.882 25.4369 -13.8192 1.58008e-005 -2.93677e-006 2.64796e-005 -3.95781 3.98122 0.984246 4.50182e-006 -1.14581e-007 3.00739 -8.03017 -4.95137 -0.697637 -174.265 35.6726 -5.82604 180 3.05119e-005 178.898 178.671 39.7906 178.885 1.89536e-007 -7.33855e-006 0.740951 -20.406 69.2349 20.6446 8.6765 30.586 -5.22111 -179.583 35.9793 1.39496 4.57705e-006 1.05463e-005 -1.0049 -2.90467 -35.9309 0.359215 -5.18169e-006 -2.08293e-006 -0.680213 21.439 68.3331 -19.8519 -8.37427 28.6188 3.64562 
54.3576 88.3538 7.94816 -2.04345 8.21342 3.28466 -0.670243 0.0407052 -0.161873 -1.32845 4.08532 -0.245077 -1.32756 5.73013 -0.223017 0.480713 -22.5921 -1.17182 5.72978 17.7033 -1.5032 73.455 -2.95132 -3.04916 102.604 31.3566 10.9865 4.1656e-007 1.84121e-007 -3.61842e-006 8.14832 0.0612014 -1.48153 8.83646e-006 5.78448e-006 -3.10921 8.02904 -4.95147 0.697676 -67.2447 -8.34916 5.37932 -102.873 25.2737 -13.854 1.58008e-005 -2.93677e-006 2.64796e-005 -3.97857 4.01869 0.986294 4.50182e-006 -1.14581e-007 3.00739 -8.03017 -4.95137 -0.697637 -174.348 35.2971 -5.77141 180 3.0512e-005 178.902 178.665 39.4737 178.898 1.89536e-007 -7.33855e-006 0.730025 -20.3052 69.2003 20.6079 8.66589 30.4366 -5.2646 -179.588 35.5545 1.42602 4.57705e-006 1.05463e-005 -1.00202 -2.92456 -35.499 0.346987 -5.18169e-006 -2.08293e-006 -0.667708 21.3067 68.244 -19.7711 -8.37441 28.561 3.71091 
54.3685 88.4727 8.07696 -2.02072 8.11071 3.28122 -0.671595 0.0184402 -0.161538 -1.33166 4.04079 -0.245043 -1.33076 5.6856 -0.222929 0.405185 -22.3518 -1.1822 5.78756 17.6809 -1.51187 73.434 -2.96636 -3.05434 102.618 31.2045 10.9435 4.1656e-007 1.84121e-007 -3.61842e-006 8.20085 0.0617132 -1.47329 8.83646e-006 5.78448e-006 -3.10816 8.02904 -4.95147 0.697676 -67.2525 -8.34361 5.37654 -102.867 25.1101 -13.8877 1.58008e-005 -2.93677e-006 2.64796e-005 -3.99875 4.05519 0.988245 4.50182e-006 -1.14581e-007 3.00739 -8.03017 -4.95137 -0.697637 -174.432 34.9255 -5.71511 180 3.0512e-005 178.906 178.658 39.164 178.911 1.89536e-007 -7.33855e-006 0.719751 -20.2174 69.1729 20.5789 8.65285 30.2698 -5.3043 -179.593 35.1353 1.45786 4.57705e-006 1.05463e-005 -0.998878 -2.94213 -35.0755 0.335909 -5.18169e-006 -2.08293e-006 -0.655123 21.1639 68.1548 -19.6908 -8.37511 28.5011 3.78965 
54.3778 88.5909 8.21019 -1.99745 8.0086 3.278 -0.67297 -0.00406737 -0.160876 -1.33512 3.99578 -0.244305 -1.33422 5.64058 -0.222131 0.328895 -22.1089 -1.19362 5.84756 17.6544 -1.52191 73.4134 -2.98217 -3.0599 102.631 31.0482 10.9035 4.1656e-007 1.84121e-007 -3.61842e-006 8.25271 0.0622303 -1.46444 8.83646e-006 5.78448e-006 -3.10697 8.02904 -4.95147 0.697676 -67.2579 -8.33782 5.37357 -102.865 24.9462 -13.9208 1.58008e-005 -2.93677e-006 2.64796e-005 -4.01826 4.09081 0.990108 4.50182e-006 -1.14581e-007 3.00739 -8.03017 -4.95137 -0.697637 -174.516 34.5572 -5.65753 180 3.05121e-005 178.91 178.649 38.8604 178.925 1.89536e-007 -7.33855e-006 0.710071 -20.1416 69.1521 20.5566 8.63758 30.0879 -5.3397 -179.599 34.7211 1.49019 4.57705e-006 1.05463e-005 -0.995529 -2.9576 -34.6597 0.325875 -5.18169e-006 -2.08293e-006 -0.64249 21.0123 68.0657 -19.6113 -8.37617 28.4391 3.87934 
54.3844 88.7043 8.33695 -1.9738 7.90688 3.27488 -0.674352 -0.0267429 -0.159945 -1.33878 3.95042 -0.242981 -1.33787 5.59523 -0.220743 0.252471 -21.8639 -1.20571 5.90881 17.6245 -1.53291 73.3933 -2.99846 -3.06573 102.641 30.8887 10.8663 4.1656e-007 1.84121e-007 -3.61842e-006 8.304 0.0627499 -1.45505 8.83646e-006 5.78448e-006 -3.10568 8.02904 -4.95147 0.697676 -67.2609 -8.33201 5.37055 -102.865 24.7821 -13.9533 1.58008e-005 -2.93677e-006 2.64796e-005 -4.03698 4.12568 0.991891 4.50182e-006 -1.14581e-007 3.00739 -8.03017 -4.95137 -0.697637 -174.6 34.1918 -5.59904 180 3.05121e-005 178.914 178.64 38.5621 178.939 1.89536e-007 -7.33855e-006 0.700925 -20.0765 69.1369 20.5403 8.62025 29.893 -5.3703 -179.606 34.3115 1.52273 4.57705e-006 1.05463e-005 -0.992003 -2.97119 -34.2512 0.316787 -5.18169e-006 -2.08293e-006 -0.629836 20.8532 67.9772 -19.5329 -8.37738 28.3753 3.97745 
54.3985 88.8188 8.45791 -1.94993 7.80536 3.27173 -0.67573 -0.0495117 -0.158805 -1.34256 3.90487 -0.241187 -1.34166 5.54968 -0.218883 0.176538 -21.6171 -1.2181 5.97036 17.5916 -1.54446 73.3743 -3.01493 -3.07173 102.648 30.7268 10.8318 4.1656e-007 1.84121e-007 -3.61842e-006 8.35477 0.0632692 -1.44521 8.83646e-006 5.78448e-006 -3.10429 8.02904 -4.95147 0.697676 -67.2618 -8.32643 5.3676 -102.869 24.6179 -13.9855 1.58008e-005 -2.93677e-006 2.64796e-005 -4.05482 4.15987 0.993603 4.50182e-006 -1.14581e-007 3.00739 -8.03017 -4.95137 -0.697637 -174.684 33.8285 -5.54003 180 3.05121e-005 178.917 178.631 38.2678 178.953 1.89536e-007 -7.33855e-006 0.692252 -20.0209 69.1267 20.5292 8.6011 29.6872 -5.3956 -179.612 33.9058 1.55521 4.57705e-006 1.05463e-005 -0.988336 -2.9831 -33.8495 0.308545 -5.18169e-006 -2.08293e-006 -0.617193 20.6885 67.8895 -19.4558 -8.37858 28.3095 4.08148 
54.4057 88.9278 8.5871 -1.92599 7.70381 3.26843 -0.677087 -0.0722993 -0.157515 -1.34641 3.85929 -0.239042 -1.34552 5.50409 -0.216671 0.101708 -21.3689 -1.23042 6.03125 17.5562 -1.55614 73.3568 -3.03128 -3.07779 102.652 30.5633 10.7996 4.1656e-007 1.84121e-007 -3.61842e-006 8.40512 0.0637851 -1.43501 8.83646e-006 5.78448e-006 -3.10283 8.02904 -4.95147 0.697676 -67.2605 -8.3213 5.36484 -102.875 24.4535 -14.0178 1.58008e-005 -2.93677e-006 2.64796e-005 -4.07166 4.19351 0.995253 4.50182e-006 -1.14581e-007 3.00739 -8.03017 -4.95137 -0.697637 -174.767 33.467 -5.48085 180 3.05122e-005 178.92 178.621 37.9766 178.968 1.89536e-007 -7.33855e-006 0.683993 -19.9737 69.1207 20.5224 8.58035 29.4728 -5.41512 -179.618 33.5035 1.58735 4.57705e-006 1.05463e-005 -0.984564 -2.99353 -33.4541 0.301056 -5.18169e-006 -2.08293e-006 -0.604591 20.5196 67.8029 -19.3804 -8.37957 28.2419 4.18893 
